# xmcd CD database file
#
# Track frame offsets:
#	150
#	17407
#	39090
#	59647
#	79405
#	99100
#	120195
#	139875
#	158267
#	176382
#	188857
#
# Disc length: 2764 seconds
#
# Revision: 1
# Processed by: cddbd v1.5PL3 Copyright (c) Steve Scherf et al.
# Submitted via: Feurio! 1.66 - http://www.feurio.com
#
DISCID=770aca0b
DTITLE=Jimmy Dillon - Undercover Man
DYEAR=1998
DGENRE=blues
TTITLE0=Mighty Long Road
TTITLE1=Love Not Possesion
TTITLE2=Undercover Man
TTITLE3=I'll Be There For You
TTITLE4=Trouble
TTITLE5=Louisiana Rain
TTITLE6=Heaven
TTITLE7=Rituals
TTITLE8=Hey, Hey
TTITLE9=Dangerous Man
TTITLE10=My Blues
EXTD=
EXTT0=
EXTT1=
EXTT2=
EXTT3=
EXTT4=
EXTT5=
EXTT6=
EXTT7=
EXTT8=
EXTT9=
EXTT10=
PLAYORDER=
